<?xml version="1.0" encoding="UTF-8"?>
<svg version="1.1" xmlns="http://www.w3.org/2000/svg" width="500" height="500">
<path d="M0 0 C4.20868721 1.63039234 5.71841892 4.14491473 8 8 C8.92311019 10.76933056 9.12655498 12.41291016 9.13130188 15.26863098 C9.13531006 16.13915604 9.13931824 17.00968109 9.14344788 17.90658569 C9.14291916 18.8588504 9.14239044 19.81111511 9.1418457 20.79223633 C9.14705734 22.29999382 9.14705734 22.29999382 9.15237427 23.83821106 C9.15973178 26.02352659 9.16507719 28.2088496 9.16866493 30.39417458 C9.17582514 33.85323286 9.19148836 37.31214885 9.21000671 40.77116394 C9.26249825 50.60694432 9.31046068 60.442647 9.32592773 70.27856445 C9.33600589 76.2927503 9.3653266 82.30657872 9.40724754 88.3206234 C9.41956469 90.61270126 9.42467751 92.90482959 9.42244911 95.19693947 C9.42009775 98.40487471 9.44225127 101.61178349 9.4699707 104.81958008 C9.46336929 105.76577209 9.45676788 106.71196411 9.44996643 107.68682861 C9.53063953 113.37437998 10.1786863 116.68208527 14 121 C14.66 121 15.32 121 16 121 C17.30542898 119.43681238 17.30542898 119.43681238 18.57421875 117.37890625 C19.07759766 116.60740234 19.58097656 115.83589844 20.09960938 115.04101562 C20.62361328 114.22310547 21.14761719 113.40519531 21.6875 112.5625 C22.70856234 110.97809292 23.73331846 109.3960603 24.76171875 107.81640625 C25.4417395 106.75595093 25.4417395 106.75595093 26.13549805 105.67407227 C28 103 28 103 29.73361206 101.34765625 C36.93961847 93.88231566 35.93141332 85.12257946 35.796875 75.4296875 C35.79864497 73.62085309 35.80393261 71.81201904 35.81256104 70.00320435 C35.82776058 65.26105315 35.80405853 60.51997331 35.76934814 55.7779541 C35.718727 48.18286568 35.72055226 40.58782081 35.73575592 32.99261856 C35.73439806 30.34957957 35.71210075 27.70733122 35.68719482 25.06442261 C35.68374919 23.436016 35.68089027 21.80760801 35.67871094 20.17919922 C35.66627853 19.451745 35.65384613 18.72429077 35.64103699 17.97479248 C35.66252931 11.88232284 37.04328261 7.3236019 41 2.625 C44.62142862 -0.31741075 48.23982214 -0.33946166 52.71484375 -0.28125 C57.29582015 0.28256248 60.00920576 2.77004853 62.8125 6.25 C65.67381729 12.87620845 65.13648307 20.53086588 65.09765625 27.625 C65.0962413 28.61250244 65.09482635 29.60000488 65.09336853 30.61743164 C65.08780927 33.74498636 65.07526446 36.87246723 65.0625 40 C65.05747973 42.13150938 65.05291775 44.26301988 65.04882812 46.39453125 C65.03785322 51.596379 65.02115612 56.79818422 65 62 C65.87140625 61.31035156 66.7428125 60.62070312 67.640625 59.91015625 C68.21144302 59.4606813 68.78226105 59.01120636 69.37037659 58.54811096 C70.63515917 57.548456 71.89530375 56.5429078 73.15098572 55.53184509 C76.19840825 53.09890099 79.2037022 50.80769008 82.56860352 48.83032227 C88.89155783 44.93586065 88.89155783 44.93586065 91.94873047 38.42919922 C92.36180233 34.25312847 92.17147035 30.1190674 91.9375 25.9375 C91.29554626 9.21072302 91.29554626 9.21072302 95.51782227 3.38500977 C99.43676349 -0.2770152 103.38268889 -0.43372898 108.52734375 -0.3125 C112.24790999 0.15771374 114.27268437 1.47224405 117 4 C119.78323701 8.57150041 120.50913584 12.61580545 120.6875 17.875 C120.72166016 18.56335938 120.75582031 19.25171875 120.79101562 19.9609375 C120.87264091 21.64008613 120.9380157 23.32001168 121 25 C121.82757813 24.5875 122.65515625 24.175 123.5078125 23.75 C140.5485307 15.43448067 158.48041592 9.06899822 177 5 C177.98677734 4.77151367 178.97355469 4.54302734 179.99023438 4.30761719 C214.02076581 -3.33632285 251.0509379 -2.7634459 285 5 C286.01723145 5.22993652 287.03446289 5.45987305 288.08251953 5.69677734 C319.81009965 13.11054793 352.04401704 27.1940693 378 47 C378.6290625 45.90042969 379.258125 44.80085938 379.90625 43.66796875 C401.59250609 6.0696513 401.59250609 6.0696513 420 0 C427.08033143 -0.91017713 433.22237382 -0.36873783 439 4 C446.74227346 10.83226744 451.43225702 19.78859911 453 30 C453.15317254 33.33421912 453.15402797 36.66610173 453.15771484 40.00341797 C453.16279556 41.00727539 453.16787628 42.01113281 453.17311096 43.04541016 C453.1837973 45.22195443 453.19242426 47.39850956 453.19923019 49.57506943 C453.21103949 53.02195691 453.23049712 56.46872025 453.25234985 59.91555786 C453.3139021 69.71465929 453.36802 79.51374701 453.40136719 89.31298828 C453.42232335 95.30998614 453.45763199 101.30675581 453.50212479 107.3036232 C453.51627439 109.58650145 453.52500487 111.86942004 453.52817917 114.15233994 C453.53309323 117.34773363 453.55626404 120.54252241 453.58349609 123.73779297 C453.58048996 124.67724762 453.57748383 125.61670227 453.5743866 126.58462524 C453.64504881 132.17409305 454.45099828 136.01447695 457 141 C457.37866211 141.86882812 457.75732422 142.73765625 458.14746094 143.6328125 C458.50614258 144.45523438 458.86482422 145.27765625 459.234375 146.125 C473.53777673 179.31502569 481.45171625 213.20018803 481.375 249.375 C481.37418427 250.82732529 481.37418427 250.82732529 481.37335205 252.30899048 C481.33318719 267.90115046 480.34436749 282.72637041 477 298 C476.67854004 299.55291748 476.67854004 299.55291748 476.35058594 301.13720703 C472.95813653 317.37108974 468.85688203 334.36892699 460.82876587 349.015625 C453.32062271 363.2188266 452.7918584 375.74771656 453.04296875 391.57421875 C453.04748532 394.07997742 453.04742315 396.58574805 453.04304504 399.09150696 C453.04109895 405.62651861 453.08898923 412.16008671 453.15161133 418.69476318 C453.24593296 429.18836563 453.27332772 439.68212835 453.28124428 450.17612648 C453.29276406 453.82193791 453.33208276 457.4666663 453.37480164 461.11222839 C453.38507559 463.35175204 453.39454359 465.59127959 453.40307617 467.83081055 C453.42224594 468.83301636 453.44141571 469.83522217 453.46116638 470.86779785 C453.45339914 478.94620584 451.32770233 486.47716545 445.71875 492.58203125 C438.64253649 498.4199074 431.15908271 500.93234724 422.04296875 500.453125 C414.54657569 499.33684567 407.95359056 495.77918899 403 490 C398.03332745 482.21544846 396.84831769 475.07845146 396.9375 465.89453125 C396.94523437 464.58162109 396.95296875 463.26871094 396.9609375 461.91601562 C396.97336799 460.54817159 396.98639456 459.18033285 397 457.8125 C397.0266663 455.11063261 397.04653554 452.40901575 397.0625 449.70703125 C397.07990234 447.92002808 397.07990234 447.92002808 397.09765625 446.09692383 C397.01623002 443.51469462 396.7681378 441.4476832 396 439 C395.2678125 439.6084375 394.535625 440.216875 393.78125 440.84375 C356.49202115 471.26531379 313.63467179 491.02712208 266 498 C264.82228027 498.17660156 263.64456055 498.35320312 262.43115234 498.53515625 C252.18120909 499.95682021 242.09220505 500.40099897 231.75 500.375 C230.51559677 500.37418427 230.51559677 500.37418427 229.2562561 500.37335205 C177.00444164 500.21593103 126.33268384 483.37770782 83.88671875 453.046875 C81.22351839 451.04820111 81.22351839 451.04820111 79 450 C79.01047363 450.61407715 79.02094727 451.2281543 79.03173828 451.86083984 C79.07384209 454.69884997 79.09949622 457.53679401 79.125 460.375 C79.14175781 461.34050781 79.15851563 462.30601562 79.17578125 463.30078125 C79.24317754 473.34282791 78.22708347 482.79157179 72 491 C65.83209195 496.93466783 59.22010083 500.12803644 50.625 500.4375 C42.22923006 500.21605194 35.75900129 497.51698956 29.5703125 491.83203125 C22.69660064 483.81270075 21.83058924 474.65399854 21.92163086 464.51708984 C21.92774264 462.82083192 21.93366983 461.12457333 21.93943787 459.42831421 C21.94411009 458.53799877 21.94878231 457.64768333 21.95359612 456.73038864 C21.97292966 451.96998223 21.95754562 447.20963725 21.94726562 442.44921875 C21.93504674 436.41232481 21.93325376 430.37613895 21.97583008 424.33935547 C22.00944672 419.44193535 22.00362735 414.54590525 21.97226143 409.64848709 C21.96737252 407.79476841 21.97644474 405.94095268 22.00047112 404.08738327 C22.15303513 391.58065639 20.68760344 384.04239249 13 374 C12.17507561 372.6453798 11.36790774 371.27922542 10.6015625 369.890625 C10.27269043 369.29499756 9.94381836 368.69937012 9.60498047 368.08569336 C-20.32976335 312.01211618 -27.11618971 245.28691863 -11 184 C-10.59910156 182.91976562 -10.19820312 181.83953125 -9.78515625 180.7265625 C-8.19571982 175.20702702 -10.49213093 170.33997675 -12.375 165.125 C-17.69548881 149.77773142 -19.14429016 133.9992993 -19.16113281 117.83081055 C-19.16858017 116.08721504 -19.16858017 116.08721504 -19.17617798 114.30839539 C-19.19066741 110.50116364 -19.19757579 106.69397341 -19.203125 102.88671875 C-19.20742605 100.89951043 -19.21172765 98.91230211 -19.2160995 96.92509395 C-19.22785749 91.4012803 -19.23543044 85.87747658 -19.2388947 80.3536517 C-19.24338852 73.2308052 -19.26101984 66.10814934 -19.2898953 58.9853608 C-19.31152282 53.45727389 -19.32159924 47.92924066 -19.32293582 42.4011119 C-19.32398136 39.1078801 -19.33129557 35.81486946 -19.34775543 32.5216732 C-19.36478923 28.85503924 -19.36294304 25.18887415 -19.35644531 21.5222168 C-19.3656601 20.43898132 -19.37487488 19.35574585 -19.3843689 18.23968506 C-19.35385946 12.75016589 -19.17181133 8.70248954 -16 4 C-11.15727407 -0.48838013 -6.32428987 -0.89750648 0 0 Z " fill="#99A9B4" transform="translate(19,0)"/>
<path d="M0 0 C1.03495605 0.38478516 1.03495605 0.38478516 2.09082031 0.77734375 C21.75157736 8.18446087 38.26913803 19.00101095 53.47802734 33.54541016 C54.50744805 34.52925497 55.54178579 35.50797648 56.58056641 36.48193359 C74.268777 53.09813142 74.268777 53.09813142 74.75 66.125 C74.78388481 67.59759798 74.815105 69.07025953 74.84375 70.54296875 C75.35452355 93.07102921 83.14766728 118.89974666 98 136 C100.15507568 139.23261352 100.26396945 140.17289849 100.30078125 143.91015625 C100.31044922 144.89056885 100.32011719 145.87098145 100.33007812 146.88110352 C100.12997069 183.09777073 87.56455955 216.35966176 64 244 C63.34128906 244.78117188 62.68257813 245.56234375 62.00390625 246.3671875 C57.67457178 251.3801011 53.0920224 255.77489898 48 260 C47.17757812 260.71027344 46.35515625 261.42054688 45.5078125 262.15234375 C14.84667202 288.1476585 -26.75304281 300.05210271 -66.57421875 296.7890625 C-104.51111637 292.90714739 -142.53592419 274.79756484 -167.2109375 245.2109375 C-168.09652344 244.11652344 -168.09652344 244.11652344 -169 243 C-169.73476562 242.12601563 -170.46953125 241.25203125 -171.2265625 240.3515625 C-184.53956359 223.91106274 -193.92898359 205.15971147 -199.75 184.875 C-199.94907959 184.18317627 -200.14815918 183.49135254 -200.35327148 182.77856445 C-203.67444627 170.51916571 -204.34754275 158.43434324 -204.31567383 145.80834961 C-204.31251742 143.20188361 -204.33604781 140.59656082 -204.36132812 137.99023438 C-204.41579266 123.51953886 -204.1508123 103.93851537 -194.75 92.1875 C-193.8425 91.465625 -192.935 90.74375 -192 90 C-185.68244639 84.71739995 -185.68244639 84.71739995 -181 78 C-180.34 78 -179.68 78 -179 78 C-178.59201172 76.69482422 -178.59201172 76.69482422 -178.17578125 75.36328125 C-177.05135984 72.14691303 -175.70176791 69.23601298 -174.1875 66.1875 C-171.68700128 60.91405114 -170.00255352 55.75529318 -168.5 50.125 C-166.77211503 43.8351951 -165.04545036 39.26274327 -160 35 C-159.44957031 34.48179687 -158.89914063 33.96359375 -158.33203125 33.4296875 C-156.27620499 31.54481481 -154.15546462 29.77043745 -152 28 C-151.49936035 27.5870166 -150.9987207 27.1740332 -150.48291016 26.74853516 C-127.92893316 8.25040495 -101.26509752 -4.68621679 -72 -8 C-71.26837646 -8.0832251 -70.53675293 -8.1664502 -69.78295898 -8.25219727 C-46.22541433 -10.79049928 -22.23652813 -8.40829372 0 0 Z " fill="#DFE6ED" transform="translate(302,106)"/>
<path d="M0 0 C9.55694778 5.62058199 14.57480557 15.17835519 17.35952759 25.61209106 C18.02241871 29.92979308 17.96539564 34.20362842 17.97021484 38.56591797 C17.97529556 39.56977539 17.98037628 40.57363281 17.98561096 41.60791016 C17.9962973 43.78445443 18.00492426 45.96100956 18.01173019 48.13756943 C18.02353949 51.58445691 18.04299712 55.03122025 18.06484985 58.47805786 C18.1264021 68.27715929 18.18052 78.07624701 18.21386719 87.87548828 C18.23482335 93.87248614 18.27013199 99.86925581 18.31462479 105.8661232 C18.32877439 108.14900145 18.33750487 110.43192004 18.34067917 112.71483994 C18.34559323 115.91023363 18.36876404 119.10502241 18.39599609 122.30029297 C18.39298996 123.23974762 18.38998383 124.17920227 18.3868866 125.14712524 C18.45754881 130.73659305 19.26349828 134.57697695 21.8125 139.5625 C22.19116211 140.43132812 22.56982422 141.30015625 22.95996094 142.1953125 C23.31864258 143.01773438 23.67732422 143.84015625 24.046875 144.6875 C38.35027673 177.87752569 46.26421625 211.76268803 46.1875 247.9375 C46.18668427 249.38982529 46.18668427 249.38982529 46.18585205 250.87149048 C46.14568719 266.46365046 45.15686749 281.28887041 41.8125 296.5625 C41.49104004 298.11541748 41.49104004 298.11541748 41.16308594 299.69970703 C37.77063653 315.93358974 33.66938203 332.93142699 25.64126587 347.578125 C18.13312271 361.7813266 17.6043584 374.31021656 17.85546875 390.13671875 C17.85998532 392.64247742 17.85992315 395.14824805 17.85554504 397.65400696 C17.85359895 404.18901861 17.90148923 410.72258671 17.96411133 417.25726318 C18.05843296 427.75086563 18.08582772 438.24462835 18.09374428 448.73862648 C18.10526406 452.38443791 18.14458276 456.0291663 18.18730164 459.67472839 C18.19757559 461.91425204 18.20704359 464.15377959 18.21557617 466.39331055 C18.23474594 467.39551636 18.25391571 468.39772217 18.27366638 469.43029785 C18.26589914 477.50870584 16.14020233 485.03966545 10.53125 491.14453125 C3.45503649 496.9824074 -4.02841729 499.49484724 -13.14453125 499.015625 C-20.64092431 497.89934567 -27.23390944 494.34168899 -32.1875 488.5625 C-37.2472184 480.63211235 -38.31207074 473.36156162 -38.3203125 464.01953125 C-38.32174759 462.98320808 -38.32174759 462.98320808 -38.32321167 461.9259491 C-38.32388725 460.47805692 -38.32207677 459.03016161 -38.31787109 457.58227539 C-38.31248914 455.37053654 -38.31784982 453.15899846 -38.32421875 450.94726562 C-38.32355834 449.53385372 -38.32227794 448.12044194 -38.3203125 446.70703125 C-38.31918457 445.43190674 -38.31805664 444.15678223 -38.31689453 442.84301758 C-38.1875 439.5625 -38.1875 439.5625 -37.68455601 437.78852463 C-36.99861017 434.71657235 -37.08419647 431.81285147 -37.10520935 428.66558838 C-37.10843848 427.97205033 -37.11166761 427.27851228 -37.11499459 426.56395793 C-37.12705528 424.24082446 -37.14643107 421.91780999 -37.16577148 419.59472656 C-37.1759158 417.92913572 -37.18560931 416.26354207 -37.19488525 414.59794617 C-37.22135094 410.07556147 -37.25413361 405.55324188 -37.28803515 401.03090763 C-37.3223933 396.30503163 -37.35096311 391.57912076 -37.38014221 386.85321045 C-37.43628097 377.90369831 -37.49763892 368.95422985 -37.56086355 360.00476527 C-37.63258807 349.81625836 -37.69850707 339.62771649 -37.76393402 329.4391675 C-37.89865455 308.48023292 -38.04068 287.52135308 -38.1875 266.5625 C-38.31229736 267.56120117 -38.43709473 268.55990234 -38.56567383 269.58886719 C-38.73759891 270.92906137 -38.90972906 272.26922925 -39.08203125 273.609375 C-39.24807861 274.91745117 -39.41412598 276.22552734 -39.58520508 277.57324219 C-44.26476481 311.02613277 -62.58911841 341.27827111 -85.1875 365.5625 C-85.79980469 366.22894531 -86.41210938 366.89539063 -87.04296875 367.58203125 C-101.10227926 382.30084033 -118.83546581 393.09126735 -137.1875 401.5625 C-138.90453125 402.36494141 -138.90453125 402.36494141 -140.65625 403.18359375 C-157.27733779 410.38980861 -176.09541772 414.57250918 -194.1875 415.5625 C-194.95352539 415.60632813 -195.71955078 415.65015625 -196.50878906 415.6953125 C-217.25202321 416.69298308 -238.73571027 413.96371482 -258.1875 406.5625 C-258.96109863 406.27890625 -259.73469727 405.9953125 -260.53173828 405.703125 C-284.81188434 396.76204527 -304.69890331 383.61877182 -323.1875 365.5625 C-323.74961182 365.02302734 -324.31172363 364.48355469 -324.89086914 363.92773438 C-329.14466122 359.78112169 -332.90355396 355.41244963 -336.5 350.6875 C-337.0561499 349.95789063 -337.6122998 349.22828125 -338.18530273 348.4765625 C-343.84959655 340.89930246 -348.7679034 332.92257497 -353.1875 324.5625 C-353.5400737 323.93622208 -353.8926474 323.30994415 -354.25590515 322.66468811 C-357.68840298 315.957714 -357.70818153 309.85756931 -357.578125 302.43359375 C-357.57246521 301.20334976 -357.56680542 299.97310577 -357.56097412 298.70558167 C-357.5387092 294.80331355 -357.4885284 290.90198732 -357.4375 287 C-357.41515076 284.3431124 -357.39917396 281.68623365 -357.3828125 279.02929688 C-357.33887663 272.54004703 -357.27206265 266.05134083 -357.1875 259.5625 C-356.8575 259.5625 -356.5275 259.5625 -356.1875 259.5625 C-356.02894531 260.86960937 -355.87039063 262.17671875 -355.70703125 263.5234375 C-351.67574598 295.106801 -340.53854362 324.49333459 -319.1875 348.5625 C-318.50945312 349.36042969 -317.83140625 350.15835937 -317.1328125 350.98046875 C-312.82862166 355.97969429 -308.30381286 360.4033205 -303.1875 364.5625 C-302.26453125 365.32304687 -301.3415625 366.08359375 -300.390625 366.8671875 C-269.71987714 391.61773367 -230.172557 403.91870172 -190.87353516 400.25341797 C-176.39430071 398.64780395 -162.72229555 395.97778572 -149.1875 390.5625 C-147.96160156 390.088125 -146.73570312 389.61375 -145.47265625 389.125 C-133.6173794 384.30429074 -122.98809517 378.10904171 -112.75 370.5 C-112.0998291 370.01772949 -111.4496582 369.53545898 -110.77978516 369.03857422 C-106.20540387 365.55226821 -102.17440169 361.7002888 -98.1875 357.5625 C-93.1875 352.5625 -93.1875 352.5625 -91.62084961 351.06835938 C-71.07447181 331.19625538 -58.28235189 301.53180084 -54.1875 273.5625 C-53.92839844 272.24185547 -53.92839844 272.24185547 -53.6640625 270.89453125 C-51.2017272 254.97507326 -51.2017272 254.97507326 -54.9140625 239.91796875 C-56.44242417 238.0403423 -58.03225439 236.21128607 -59.67578125 234.43359375 C-72.29405487 220.00990618 -77.99609896 194.02302806 -78.2734375 175.38671875 C-78.29237061 174.64977783 -78.31130371 173.91283691 -78.33081055 173.15356445 C-78.35900541 171.73961532 -78.35823931 170.3245904 -78.31958008 168.91088867 C-78.51739596 157.81839695 -87.85735504 149.24560798 -95.3125 142 C-96.14998779 141.17717529 -96.98747559 140.35435059 -97.8503418 139.5065918 C-108.32036927 129.35204159 -119.32889354 121.40659699 -132.1875 114.5625 C-133.16203125 114.02882813 -134.1365625 113.49515625 -135.140625 112.9453125 C-143.49468325 108.54003042 -152.23254317 105.4839427 -161.1875 102.5625 C-162.10917969 102.253125 -163.03085937 101.94375 -163.98046875 101.625 C-200.726999 90.40825309 -241.82943811 96.46074095 -275.58203125 113.76171875 C-289.20063709 121.04071126 -301.22473391 130.43502622 -312.0625 141.4375 C-314.0037859 143.3787859 -315.97848669 144.94502164 -318.1875 146.5625 C-318.43289932 126.62182583 -318.43289932 126.62182583 -313.828125 121.07421875 C-311.22231507 118.61213871 -308.31540149 116.67614182 -305.25634766 114.82080078 C-303.01807718 113.45945478 -300.86349531 112.00325948 -298.69921875 110.52734375 C-279.57138775 97.71330369 -258.84171004 88.79429515 -236.1875 84.5625 C-235.30707031 84.36914062 -234.42664063 84.17578125 -233.51953125 83.9765625 C-193.67918404 75.235755 -149.22734806 85.76898726 -115.05859375 107.0234375 C-101.75736191 115.59189778 -90.22574394 126.28429424 -79.1875 137.5625 C-79.10113281 136.27601563 -79.01476562 134.98953125 -78.92578125 133.6640625 C-76.84379331 105.73290938 -71.17444079 77.62703194 -59.31640625 52.1015625 C-58.15797035 49.71265944 -58.15797035 49.71265944 -57.7421875 47.63647461 C-57.15469298 45.43983465 -56.32830388 43.80006134 -55.18359375 41.83984375 C-54.77681396 41.14189697 -54.37003418 40.4439502 -53.95092773 39.72485352 C-53.51337158 38.99065186 -53.07581543 38.2564502 -52.625 37.5 C-52.17390869 36.74066162 -51.72281738 35.98132324 -51.25805664 35.19897461 C-41.40260046 18.8056889 -23.06939588 -9.98458043 0 0 Z " fill="#99A9B4" transform="translate(454.1875,1.4375)"/>
<path d="M0 0 C0.33 0 0.66 0 1 0 C1.33 59.4 1.66 118.8 2 180 C1.34 180.33 0.68 180.66 0 181 C-0.33 180.34 -0.66 179.68 -1 179 C-1.7321875 179.6084375 -2.464375 180.216875 -3.21875 180.84375 C-40.50797885 211.26531379 -83.36532821 231.02712208 -131 238 C-132.76657959 238.26490234 -132.76657959 238.26490234 -134.56884766 238.53515625 C-144.81879091 239.95682021 -154.90779495 240.40099897 -165.25 240.375 C-166.48440323 240.37418427 -166.48440323 240.37418427 -167.7437439 240.37335205 C-221.58517395 240.21114194 -272.47241799 222.27832791 -316 191 C-316.99 190.34 -317.98 189.68 -319 189 C-319.36914349 186.70802879 -319.36914349 186.70802879 -319.36076355 183.78622437 C-319.36488754 182.68122086 -319.36901154 181.57621735 -319.3732605 180.43772888 C-319.36247467 179.21997269 -319.35168884 178.00221649 -319.34057617 176.74755859 C-319.34101425 175.4695488 -319.34145233 174.191539 -319.34190369 172.87480164 C-319.34276649 169.36457573 -319.32509503 165.85465567 -319.30418181 162.34450102 C-319.28546226 158.67830157 -319.28366831 155.01209557 -319.28010559 151.34585571 C-319.27077119 144.40078331 -319.24613866 137.45585211 -319.21605712 130.51084197 C-319.18255639 122.60528273 -319.16603802 114.69971685 -319.15097082 106.79410434 C-319.11959022 90.52932015 -319.06680278 74.26467808 -319 58 C-315.74073228 59.62963386 -314.87511943 63.13364966 -313.375 66.3125 C-293.95669359 106.05556448 -258.33983273 133.41798337 -217.3828125 148.2421875 C-209.09722401 151.07002317 -200.62545296 152.62158013 -192 154 C-190.73027344 154.22429687 -189.46054688 154.44859375 -188.15234375 154.6796875 C-147.23308211 161.18046247 -103.08113737 149.39878625 -69.52734375 125.5703125 C-51.73703329 112.51344396 -36.78953068 96.61668813 -25 78 C-24.59507324 77.36078613 -24.19014648 76.72157227 -23.77294922 76.06298828 C-16.90016514 65.00923692 -12.27700876 53.25985377 -8 41 C-7.72389893 40.21351074 -7.44779785 39.42702148 -7.16333008 38.61669922 C-2.8673175 26.10067367 -1.36261827 13.09716621 0 0 Z " fill="#DFE6ED" transform="translate(416,260)"/>
<path d="M0 0 C1.01723145 0.22993652 2.03446289 0.45987305 3.08251953 0.69677734 C30.14635857 7.02077347 56.1542201 18.44763309 79.8125 32.9375 C80.68390625 33.46883545 81.5553125 34.0001709 82.453125 34.54760742 C91.18303784 40.06229336 91.18303784 40.06229336 93 44 C92.48740478 47.20479701 91.27074676 50.02781714 90 53 C89.44488842 54.46532654 88.89531655 55.9327648 88.3515625 57.40234375 C88.07103027 58.13694824 87.79049805 58.87155273 87.50146484 59.62841797 C78.39062993 83.63128054 72.44625245 109.23906297 72 135 C67.88498255 131.60063775 64.08285483 128.09114373 60.375 124.25 C31.29827381 95.08621774 -11.22058033 79.30044104 -52.0637207 78.75341797 C-92.95776848 78.6988458 -130.87032843 92.40657786 -162.2421875 118.6015625 C-164 120 -164 120 -165 120 C-165 87.33 -165 54.66 -165 21 C-146.31975909 11.65987955 -146.31975909 11.65987955 -138.1875 8.8125 C-137.25357422 8.48209717 -136.31964844 8.15169434 -135.35742188 7.8112793 C-126.33675061 4.67961211 -117.32540505 2.04891516 -108 0 C-107.01322266 -0.22848633 -106.02644531 -0.45697266 -105.00976562 -0.69238281 C-70.97923419 -8.33632285 -33.9490621 -7.7634459 0 0 Z " fill="#DFE6ED" transform="translate(304,5)"/>
<path d="M0 0 C2.69357659 2.5942473 4.98783072 5.23020711 7.1875 8.25 C14.24989875 17.36664212 20.17669568 21.08031622 31 26 C31 87.38 31 148.76 31 212 C0.45768993 173.82211241 -11.21164828 120.0270481 -11.25 72.1875 C-11.25067474 71.42232056 -11.25134949 70.65714111 -11.25204468 69.86877441 C-11.22036364 47.08566647 -9.86305019 20.90163833 0 0 Z " fill="#DFE6EC" transform="translate(11,177)"/>
<path d="M0 0 C0.51949219 0.39832031 1.03898437 0.79664063 1.57421875 1.20703125 C2.62029297 2.00173828 2.62029297 2.00173828 3.6875 2.8125 C4.77695923 3.64056152 4.77695923 3.64056152 5.88842773 4.48535156 C8.06962593 6.12560791 8.06962593 6.12560791 10.97265625 7.546875 C13 9 13 9 13.55859375 11.390625 C11.7898255 53.15637843 -5.82261148 89.72056829 -34 120 C-34.61230469 120.66644531 -35.22460938 121.33289063 -35.85546875 122.01953125 C-49.91477926 136.73834033 -67.64796581 147.52876735 -86 156 C-87.1446875 156.53496094 -88.289375 157.06992187 -89.46875 157.62109375 C-106.08983779 164.82730861 -124.90791772 169.01000918 -143 170 C-143.76602539 170.04382813 -144.53205078 170.08765625 -145.32128906 170.1328125 C-166.06452321 171.13048308 -187.54821027 168.40121482 -207 161 C-208.16039795 160.57460938 -208.16039795 160.57460938 -209.34423828 160.140625 C-233.62438434 151.19954527 -253.51140331 138.05627182 -272 120 C-272.56211182 119.46052734 -273.12422363 118.92105469 -273.70336914 118.36523438 C-277.95716122 114.21862169 -281.71605396 109.84994963 -285.3125 105.125 C-285.8686499 104.39539063 -286.4247998 103.66578125 -286.99780273 102.9140625 C-292.66209655 95.33680246 -297.5804034 87.36007497 -302 79 C-302.3525737 78.37372208 -302.7051474 77.74744415 -303.06840515 77.10218811 C-306.50090298 70.395214 -306.52068153 64.29506931 -306.390625 56.87109375 C-306.38496521 55.64084976 -306.37930542 54.41060577 -306.37347412 53.14308167 C-306.3512092 49.24081355 -306.3010284 45.33948732 -306.25 41.4375 C-306.22765076 38.7806124 -306.21167396 36.12373365 -306.1953125 33.46679688 C-306.15137663 26.97754703 -306.08456265 20.48884083 -306 14 C-305.67 14 -305.34 14 -305 14 C-304.84144531 15.30710937 -304.68289063 16.61421875 -304.51953125 17.9609375 C-300.48824598 49.544301 -289.35104362 78.93083459 -268 103 C-266.98292969 104.19689453 -266.98292969 104.19689453 -265.9453125 105.41796875 C-261.64112166 110.41719429 -257.11631286 114.8408205 -252 119 C-250.61554688 120.14082031 -250.61554688 120.14082031 -249.203125 121.3046875 C-218.53237714 146.05523367 -178.985057 158.35620172 -139.68603516 154.69091797 C-125.20680071 153.08530395 -111.53479555 150.41528572 -98 145 C-96.77410156 144.525625 -95.54820312 144.05125 -94.28515625 143.5625 C-82.4298794 138.74179074 -71.80059517 132.54654171 -61.5625 124.9375 C-60.9123291 124.45522949 -60.2621582 123.97295898 -59.59228516 123.47607422 C-55.01790387 119.98976821 -50.98690169 116.1377888 -47 112 C-42 107 -42 107 -40.43334961 105.50585938 C-11.52327765 77.54453391 -3.7407977 38.30207981 0 0 Z " fill="#1A05A8" transform="translate(403,247)"/>
<path d="M0 0 C3.386029 3.386029 4.600255 4.72542804 6.33203125 8.83203125 C6.93591675 10.25902344 6.93591675 10.25902344 7.55200195 11.71484375 C7.96796631 12.73707031 8.38393066 13.75929687 8.8125 14.8125 C9.24973389 15.87984375 9.68696777 16.9471875 10.13745117 18.046875 C22.30804831 48.36512029 28.44416994 79.75857757 28.375 112.375 C28.37445618 113.34321686 28.37391235 114.31143372 28.37335205 115.30899048 C28.33318719 130.90115046 27.34436749 145.72637041 24 161 C23.67854004 162.55291748 23.67854004 162.55291748 23.35058594 164.13720703 C18.94985491 185.19601816 12.36179292 206.05202656 2 225 C1.34 225.33 0.68 225.66 0 226 C0 151.42 0 76.84 0 0 Z " fill="#DEE5EB" transform="translate(472,137)"/>
<path d="M0 0 C0.78632813 0.75023437 1.57265625 1.50046875 2.3828125 2.2734375 C4.69867637 4.49234748 4.69867637 4.49234748 7.3671875 6.2265625 C11.06595174 9.0265616 13.41831561 11.22881235 14.13232422 15.98339844 C14.52526305 22.48158349 14.24357711 28.95181246 13.75 35.4375 C10.60976232 32.34095258 7.5971148 29.18826078 4.6875 25.875 C-8.4039678 11.3120945 -21.92140454 -0.33921532 -39.25 -9.5625 C-40.22453125 -10.09617188 -41.1990625 -10.62984375 -42.203125 -11.1796875 C-50.55718325 -15.58496958 -59.29504317 -18.6410573 -68.25 -21.5625 C-69.17167969 -21.871875 -70.09335937 -22.18125 -71.04296875 -22.5 C-107.789499 -33.71674691 -148.89193811 -27.66425905 -182.64453125 -10.36328125 C-196.26313709 -3.08428874 -208.28723391 6.31002622 -219.125 17.3125 C-221.0662859 19.2537859 -223.04098669 20.82002164 -225.25 22.4375 C-225.49539932 2.49682583 -225.49539932 2.49682583 -220.890625 -3.05078125 C-218.28481507 -5.51286129 -215.37790149 -7.44885818 -212.31884766 -9.30419922 C-210.08057718 -10.66554522 -207.92599531 -12.12174052 -205.76171875 -13.59765625 C-186.63388775 -26.41169631 -165.90421004 -35.33070485 -143.25 -39.5625 C-142.36957031 -39.75585938 -141.48914063 -39.94921875 -140.58203125 -40.1484375 C-90.98318077 -51.03022028 -37.28425323 -32.98883235 0 0 Z " fill="#1A04A8" transform="translate(361.25,125.5625)"/>
<path d="M0 0 C0.06960189 9.0232032 0.12286286 18.04631356 0.15543652 27.06972694 C0.17107261 31.2599602 0.19227306 35.45000939 0.22631836 39.64013672 C0.25898553 43.68610817 0.27686848 47.73190288 0.28463173 51.77799606 C0.29016207 53.31932735 0.30096154 54.86064929 0.31719017 56.40190506 C0.33906293 58.56583585 0.34196292 60.72904233 0.34057617 62.89306641 C0.34723801 64.12328522 0.35389984 65.35350403 0.36076355 66.6210022 C-0.15711948 71.47161863 -1.84521554 74.74332279 -5.125 78.3125 C-9.04995477 80.6162778 -12.45845979 81.32661762 -17 81 C-20.90358849 79.72382684 -23.46916157 77.7431738 -25.875 74.375 C-26.24625 73.59125 -26.6175 72.8075 -27 72 C-27.33 71.34 -27.66 70.68 -28 70 C-28.13025559 68.4400612 -28.20059763 66.87491805 -28.24047852 65.31005859 C-28.26622452 64.33499359 -28.29197052 63.35992859 -28.3184967 62.35531616 C-28.40281742 57.87909802 -28.46856395 53.40304487 -28.51489258 48.92626953 C-28.54649052 46.56922475 -28.59420017 44.21233791 -28.65844727 41.85595703 C-28.74996477 38.45284392 -28.78855674 35.0525976 -28.81640625 31.6484375 C-28.85455948 30.60231293 -28.89271271 29.55618835 -28.93202209 28.47836304 C-28.91692397 22.75794148 -28.30450874 19.64235653 -24.22363281 15.48486328 C-22.84924928 14.28380008 -21.44057387 13.1208166 -20 12 C-18.84990448 11.09748001 -18.84990448 11.09748001 -17.67657471 10.17672729 C-15.55318269 8.55378698 -13.38508876 7.0206616 -11.1875 5.5 C-10.43791016 4.96375 -9.68832031 4.4275 -8.91601562 3.875 C-3.38524394 0 -3.38524394 0 0 0 Z " fill="#DFE6EC" transform="translate(111,44)"/>
<path d="M0 0 C0.33 0 0.66 0 1 0 C1.1171893 3.35386761 1.18757584 6.70720149 1.25 10.0625 C1.30027344 11.47692383 1.30027344 11.47692383 1.3515625 12.91992188 C1.43911671 19.20193635 0.78555072 22.91921676 -3 28 C-6.09730401 30.70599579 -9.40129068 31.99008552 -13.51953125 32.015625 C-15.71524904 31.78049302 -17.84107778 31.45977047 -20 31 C-19.52974436 25.82718796 -16.85883896 22.42005608 -13.9375 18.3125 C-13.44523926 17.60931641 -12.95297852 16.90613281 -12.44580078 16.18164062 C-8.52755863 10.63175139 -4.54653612 5.05710969 0 0 Z " fill="#DCE3E9" transform="translate(55,93)"/>
<path d="M0 0 C0.33 0 0.66 0 1 0 C1.33 59.4 1.66 118.8 2 180 C1.34 180.33 0.68 180.66 0 181 C-0.90278409 177.14720784 -1.12351891 173.58139603 -1.12025452 169.6282196 C-1.12231651 167.6994825 -1.12231651 167.6994825 -1.12442017 165.73178101 C-1.12088147 164.31426978 -1.11724667 162.8967588 -1.11352539 161.47924805 C-1.1132432 159.98099265 -1.11340187 158.48273712 -1.1139679 156.98448181 C-1.11425464 152.92291182 -1.10837772 148.86137139 -1.10139394 144.79980826 C-1.09514 140.55304855 -1.09455498 136.30628815 -1.09336853 132.05952454 C-1.09026124 124.02025994 -1.08205595 115.98100895 -1.07201904 107.94175035 C-1.06083923 98.78824331 -1.05534274 89.63473563 -1.05032361 80.48122346 C-1.03987285 61.65414126 -1.02228504 42.82707173 -1 24 C-1.66 24.33 -2.32 24.66 -3 25 C-2.01 16.75 -1.02 8.5 0 0 Z " fill="#C5D4DA" transform="translate(416,260)"/>
<path d="M0 0 C1.40793368 4.22380105 -0.09752041 7.44026246 -1.3125 11.5625 C-3.96456469 20.98932642 -5.22014704 30.25765785 -6 40 C-6.33 40 -6.66 40 -7 40 C-7 27.79 -7 15.58 -7 3 C-4.69 2.01 -2.38 1.02 0 0 Z " fill="#251C90" transform="translate(104,200)"/>
<path d="M0 0 C-0.50469288 2.85992635 -1.15544493 5.4404273 -2.125 8.1875 C-3.33025238 10.91676968 -3.33025238 10.91676968 -2 13 C-2.30692925 15.37870166 -2.85283442 16.79396819 -4.25 18.75 C-6.57215064 20.40867903 -8.20677946 20.09128172 -11 20 C-11.7860262 10.02620087 -11.7860262 10.02620087 -8.75 6.0625 C-7.8425 5.381875 -6.935 4.70125 -6 4 C-5.278125 3.236875 -4.55625 2.47375 -3.8125 1.6875 C-2 0 -2 0 0 0 Z " fill="#1801AB" transform="translate(150,119)"/>
<path d="M0 0 C0.33 0 0.66 0 1 0 C1.01030746 1.2815094 1.02061493 2.5630188 1.03123474 3.88336182 C1.12891205 15.94940315 1.23164082 28.01539225 1.33933926 40.08134842 C1.39454749 46.28484568 1.44796423 52.48834768 1.49731445 58.69189453 C1.54498883 64.67655319 1.59733292 70.66115431 1.65294075 76.64574432 C1.67335033 78.93111492 1.69206573 81.21650128 1.70907402 83.50189972 C1.73314878 86.69826465 1.7631994 89.89452093 1.79467773 93.09082031 C1.8004332 94.03956528 1.80618866 94.98831024 1.81211853 95.96580505 C1.82190735 96.83796158 1.83169617 97.7101181 1.84178162 98.60870361 C1.84823417 99.36457386 1.85468672 100.12044411 1.8613348 100.89921951 C2.00261592 103.03963119 2.41496512 104.94025703 3 107 C1.0625 106.1875 1.0625 106.1875 -1 105 C-1.33 104.01 -1.66 103.02 -2 102 C-1.505 101.505 -1.505 101.505 -1 101 C-0.87457722 97.86510797 -0.81386331 94.75120163 -0.79467773 91.61499023 C-0.78477814 90.62973358 -0.77487854 89.64447693 -0.76467896 88.62936401 C-0.73296006 85.3557988 -0.70826563 82.08221905 -0.68359375 78.80859375 C-0.66303318 76.54557405 -0.64203696 74.28255827 -0.62062073 72.01954651 C-0.56530734 66.05025395 -0.51593907 60.08092621 -0.46777344 54.11157227 C-0.4176259 48.02552136 -0.3619047 41.93952184 -0.30664062 35.85351562 C-0.19894578 23.90238759 -0.09752613 11.95121504 0 0 Z " fill="#8F99A2" transform="translate(27,12)"/>
<path d="M0 0 C0 0.99 0 1.98 0 3 C0.99 3.33 1.98 3.66 3 4 C4.34726118 8.04178355 3.32004573 10.03986281 2 14 C1.34 14 0.68 14 0 14 C-1.37310707 15.29233607 -2.71034824 16.62437146 -4 18 C-4.99 17.34 -5.98 16.68 -7 16 C-6.34 16 -5.68 16 -5 16 C-3.42726432 13.1575146 -3.42726432 13.1575146 -3 10 C-4.32 9.34 -5.64 8.68 -7 8 C-6.34 7.01 -5.68 6.02 -5 5 C-4.34 5 -3.68 5 -3 5 C-2.814375 4.0409375 -2.814375 4.0409375 -2.625 3.0625 C-2.41875 2.381875 -2.2125 1.70125 -2 1 C-1.34 0.67 -0.68 0.34 0 0 Z " fill="#1802AE" transform="translate(356,361)"/>
<path d="M0 0 C0.66 0.33 1.32 0.66 2 1 C1.34 2.32 0.68 3.64 0 5 C-0.66 5 -1.32 5 -2 5 C-2 5.99 -2 6.98 -2 8 C-1.401875 7.649375 -0.80375 7.29875 -0.1875 6.9375 C2 6 2 6 5 7 C3.12653773 8.41873842 1.25129507 9.83501625 -0.625 11.25 C-1.66914063 12.03890625 -2.71328125 12.8278125 -3.7890625 13.640625 C-6.80951894 15.86003581 -9.86543917 17.94794516 -13 20 C-12.3125 17.125 -12.3125 17.125 -11 14 C-8.4375 12.75 -8.4375 12.75 -6 12 C-5.67 11.34 -5.34 10.68 -5 10 C-5.66 9.67 -6.32 9.34 -7 9 C-6.8125 6.125 -6.8125 6.125 -6 3 C-3.5 1.6875 -3.5 1.6875 -1 1 C-0.67 0.67 -0.34 0.34 0 0 Z " fill="#DDE2F4" transform="translate(152,105)"/>
<path d="M0 0 C0 0.99 0 1.98 0 3 C-0.804375 3.66 -1.60875 4.32 -2.4375 5 C-6.12616816 9.31844077 -5.8936407 13.4789852 -6 19 C-5.01 18.67 -4.02 18.34 -3 18 C-2.34 18.33 -1.68 18.66 -1 19 C-0.67 18.01 -0.34 17.02 0 16 C0.66 16 1.32 16 2 16 C2.33 14.68 2.66 13.36 3 12 C3.33 13.32 3.66 14.64 4 16 C3.48050781 16.44730469 2.96101562 16.89460938 2.42578125 17.35546875 C1.72839844 17.96003906 1.03101563 18.56460938 0.3125 19.1875 C-0.37199219 19.77917969 -1.05648437 20.37085938 -1.76171875 20.98046875 C-4.26332375 23.23758879 -6.6344824 25.60134029 -9 28 C-8.86639012 24.45416474 -8.65855676 20.91637398 -8.4375 17.375 C-8.40076172 16.37597656 -8.36402344 15.37695312 -8.32617188 14.34765625 C-7.81612817 7.01274196 -7.81612817 7.01274196 -5.34814453 3.95019531 C-3.62801825 2.47580136 -1.92694392 1.18762017 0 0 Z " fill="#241599" transform="translate(145,120)"/>
<path d="M0 0 C3.31939397 1.65969699 4.1635919 5.30403519 5.625 8.5625 C5.94984375 9.27341797 6.2746875 9.98433594 6.609375 10.71679688 C7.41190993 12.47529252 8.20668959 14.23732367 9 16 C7.68 15.67 6.36 15.34 5 15 C5 15.99 5 16.98 5 18 C3.68 18 2.36 18 1 18 C0.67 12.06 0.34 6.12 0 0 Z " fill="#DBE2F1" transform="translate(97,318)"/>
<path d="M0 0 C3.43734063 -0.08703823 6.87439837 -0.14040272 10.3125 -0.1875 C11.28896484 -0.21263672 12.26542969 -0.23777344 13.27148438 -0.26367188 C14.20927734 -0.27333984 15.14707031 -0.28300781 16.11328125 -0.29296875 C16.97735596 -0.3086792 17.84143066 -0.32438965 18.73168945 -0.34057617 C21.48822713 0.07330501 22.21500302 0.93373077 24 3 C26.15855072 3.96007743 26.15855072 3.96007743 28.5 4.625 C29.2734375 4.86476563 30.046875 5.10453125 30.84375 5.3515625 C31.5553125 5.56554687 32.266875 5.77953125 33 6 C33.99 6.33 34.98 6.66 36 7 C36 7.66 36 8.32 36 9 C32.18691986 8.32665847 28.52966825 7.31474664 24.81787109 6.23510742 C16.57334292 3.84268325 8.54056894 2.01098608 0 1 C0 0.67 0 0.34 0 0 Z " fill="#2D1CA0" transform="translate(269,98)"/>
<path d="M0 0 C0.33 0.66 0.66 1.32 1 2 C-0.16134134 5.00013179 -1.76041654 6.76041654 -4 9 C-4.433125 9.928125 -4.433125 9.928125 -4.875 10.875 C-6.73273132 14.38404805 -9.13390319 17.24504382 -12.8828125 18.76171875 C-14.57037702 19.24339202 -16.28449007 19.62998805 -18 20 C-14.14697436 15.37636923 -10.1233326 11.0888754 -5.8359375 6.8671875 C-3.71121731 4.70630186 -1.81777126 2.42369501 0 0 Z " fill="#DEE0F7" transform="translate(379,355)"/>
<path d="M0 0 C0 0.66 0 1.32 0 2 C-1.75 3.5078125 -1.75 3.5078125 -4 5.125 C-4.7425 5.66382812 -5.485 6.20265625 -6.25 6.7578125 C-7.11625 7.37269531 -7.11625 7.37269531 -8 8 C-8 7.34 -8 6.68 -8 6 C-12.72042008 7.81554619 -15.45884822 9.33237851 -19 13 C-19.99 13 -20.98 13 -22 13 C-20.86209561 9.58628683 -20.47297146 9.40606549 -17.47265625 7.7734375 C-16.76302734 7.3815625 -16.05339844 6.9896875 -15.32226562 6.5859375 C-14.57654297 6.18632813 -13.83082031 5.78671875 -13.0625 5.375 C-12.32064453 4.96765625 -11.57878906 4.5603125 -10.81445312 4.140625 C-3.25301376 0 -3.25301376 0 0 0 Z " fill="#210E9F" transform="translate(181,99)"/>
<path d="M0 0 C-1.43579375 3.12621102 -3.18014624 5.68000745 -5.3125 8.375 C-5.92867188 9.15488281 -6.54484375 9.93476563 -7.1796875 10.73828125 C-9.41995082 13.52178439 -11.69203169 16.27240109 -14 19 C-16 16 -16 16 -16 14 C-15.34 14 -14.68 14 -14 14 C-13.67 13.01 -13.34 12.02 -13 11 C-12.01 10.67 -11.02 10.34 -10 10 C-9.67 9.34 -9.34 8.68 -9 8 C-8.34 8 -7.68 8 -7 8 C-6.9175 7.4225 -6.835 6.845 -6.75 6.25 C-5.66186883 2.98560649 -3.65852651 0 0 0 Z " fill="#21109B" transform="translate(387,344)"/>
<path d="M0 0 C2.10090539 2.10090539 2.54500404 3.16244894 3.4375 5.921875 C3.69273438 6.70046875 3.94796875 7.4790625 4.2109375 8.28125 C4.47132812 9.0959375 4.73171875 9.910625 5 10.75 C5.26039062 11.54921875 5.52078125 12.3484375 5.7890625 13.171875 C6.29659682 14.73036423 6.80188169 16.28958819 7.3046875 17.84960938 C8.18510385 20.57247005 9.08981932 23.28696143 10 26 C9.01 25.67 8.02 25.34 7 25 C6.29788106 23.34795544 5.63028587 21.68076231 5 20 C4.34 19.67 3.68 19.34 3 19 C2.62020847 16.67377689 2.29692012 14.33824592 2 12 C1.66422333 10.59962907 1.31000975 9.2035504 0.9375 7.8125 C0 4 0 4 0 0 Z " fill="#26179A" transform="translate(101,288)"/>
<path d="M0 0 C1.70905498 3.41810997 2.32287711 5.07115819 2.6875 8.6875 C2.77386719 9.47511719 2.86023438 10.26273437 2.94921875 11.07421875 C2.96597656 11.70972656 2.98273438 12.34523438 3 13 C2.67 13.33 2.34 13.66 2 14 C1.84193469 15.92478813 1.748865 17.8549921 1.68359375 19.78515625 C1.64169922 20.95498047 1.59980469 22.12480469 1.55664062 23.33007812 C1.51732422 24.56177734 1.47800781 25.79347656 1.4375 27.0625 C1.39431641 28.29806641 1.35113281 29.53363281 1.30664062 30.80664062 C1.20015802 33.87097335 1.09814576 36.93539073 1 40 C0.67 40 0.34 40 0 40 C0 26.8 0 13.6 0 0 Z " fill="#140596" transform="translate(98,273)"/>
<path d="M0 0 C8.41217604 2.43458271 16.70386716 5.20143786 25 8 C25 8.33 25 8.66 25 9 C24.04738281 8.9278125 23.09476563 8.855625 22.11328125 8.78125 C20.85902344 8.6884375 19.60476562 8.595625 18.3125 8.5 C16.45044922 8.36078125 16.45044922 8.36078125 14.55078125 8.21875 C11.68500671 8.04220063 8.86900043 7.95611472 6 8 C6 6.33333333 6 4.66666667 6 3 C3.03 2.505 3.03 2.505 0 2 C0 1.34 0 0.68 0 0 Z " fill="#D6D7F8" transform="translate(186,404)"/>
<path d="M0 0 C0 0.66 0 1.32 0 2 C0.763125 1.814375 1.52625 1.62875 2.3125 1.4375 C5 1 5 1 8 2 C8 2.99 8 3.98 8 5 C10.31 5.33 12.62 5.66 15 6 C12.72374023 7.42603626 11.58190571 8.11478947 8.89355469 7.58447266 C8.16040039 7.2807373 7.42724609 6.97700195 6.671875 6.6640625 C5.87265625 6.34179688 5.0734375 6.01953125 4.25 5.6875 C3.0125 5.1615625 3.0125 5.1615625 1.75 4.625 C0.90953125 4.28210938 0.0690625 3.93921875 -0.796875 3.5859375 C-2.87066119 2.73757042 -4.93748473 1.875333 -7 1 C-7 0.67 -7 0.34 -7 0 C-2.25 -1.125 -2.25 -1.125 0 0 Z " fill="#D4D5F6" transform="translate(192,388)"/>
<path d="M0 0 C3.38133992 3.27226444 6.6137516 6.67398438 9.8125 10.125 C10.60269531 10.97320312 11.39289063 11.82140625 12.20703125 12.6953125 C14 15 14 15 14 18 C9.79373966 16.49776416 8.26099979 13.71449966 6 10 C4.35 10.33 2.7 10.66 1 11 C1 8 1 8 3 6 C2.2575 5.071875 2.2575 5.071875 1.5 4.125 C0 2 0 2 0 0 Z " fill="#1F0C9D" transform="translate(125,339)"/>
<path d="M0 0 C-24.96419763 8.16934706 -24.96419763 8.16934706 -31 6 C-31 5.67 -31 5.34 -31 5 C-29.865625 4.855625 -28.73125 4.71125 -27.5625 4.5625 C-24.19222799 4.38828522 -24.19222799 4.38828522 -23 3 C-20.37711147 2.46016612 -17.76150025 1.963107 -15.125 1.5 C-2.42852484 -0.75368012 -2.42852484 -0.75368012 0 0 Z " fill="#231396" transform="translate(304,408)"/>
<path d="M0 0 C0.99 0.66 1.98 1.32 3 2 C2.34 2 1.68 2 1 2 C1.061875 3.175625 1.12375 4.35125 1.1875 5.5625 C1.20294123 9.94780873 -0.18460298 13.00612655 -2 17 C-2.4054103 19.32189536 -2.76072994 21.65515344 -3 24 C-3.66 24 -4.32 24 -5 24 C-4.41640925 15.68383188 -2.26200586 7.98540674 0 0 Z " fill="#C2BEF2" transform="translate(104,203)"/>
<path d="M0 0 C0.33 0.66 0.66 1.32 1 2 C1.969375 2.28875 2.93875 2.5775 3.9375 2.875 C7 4 7 4 8.4375 5.9375 C9 8 9 8 8 11 C-0.44646925 4.84965831 -0.44646925 4.84965831 -4 1 C-2.68 0.67 -1.36 0.34 0 0 Z " fill="#D7D9F5" transform="translate(350,112)"/>
<path d="M0 0 C1.32435978 3.97307934 0.18129186 6.80974568 -0.9375 10.6875 C-1.13279297 11.38939453 -1.32808594 12.09128906 -1.52929688 12.81445312 C-2.01199136 14.54508944 -2.50500846 16.27284066 -3 18 C-3.66 17.34 -4.32 16.68 -5 16 C-4.94140625 13.50390625 -4.94140625 13.50390625 -4.5625 10.5625 C-4.00931927 6.22420511 -4.00931927 6.22420511 -5 2 C-3.35 1.34 -1.7 0.68 0 0 Z " fill="#1E0F97" transform="translate(104,200)"/>
<path d="M0 0 C0.66 0.33 1.32 0.66 2 1 C-3.47205322 5.01871112 -8.61005581 8.63849889 -15 11 C-15 10.34 -15 9.68 -15 9 C-14.34 9 -13.68 9 -13 9 C-13.33 8.01 -13.66 7.02 -14 6 C-13.34 6 -12.68 6 -12 6 C-11.67 5.34 -11.34 4.68 -11 4 C-10.29875 4.0825 -9.5975 4.165 -8.875 4.25 C-5.07050673 3.9191745 -3.01922734 2.24686686 0 0 Z " fill="#D2CFFA" transform="translate(336,374)"/>
<path d="M0 0 C0.66 0 1.32 0 2 0 C1.02254667 2.70679384 0.18026942 4.78634735 -1.6875 7 C-3.30889429 8.97753984 -3.30889429 8.97753984 -2.5625 11.625 C-2.376875 12.40875 -2.19125 13.1925 -2 14 C-2.66 14.66 -3.32 15.32 -4 16 C-6.625 15.625 -6.625 15.625 -9 15 C-7.87616008 13.06182687 -6.75088679 11.12448482 -5.625 9.1875 C-4.68527344 7.56908203 -4.68527344 7.56908203 -3.7265625 5.91796875 C-2.53944654 3.91168907 -1.29310627 1.93965941 0 0 Z " fill="#DBDEF7" transform="translate(394,333)"/>
<path d="M0 0 C0.33 0 0.66 0 1 0 C1 6.6 1 13.2 1 20 C0.34 20 -0.32 20 -1 20 C-1.33 21.65 -1.66 23.3 -2 25 C-3.34168157 22.31663685 -2.84841104 20.73643239 -2.44140625 17.7734375 C-2.30283203 16.7421875 -2.16425781 15.7109375 -2.02148438 14.6484375 C-1.87001953 13.56820313 -1.71855469 12.48796875 -1.5625 11.375 C-1.41490234 10.28703125 -1.26730469 9.1990625 -1.11523438 8.078125 C-0.74901104 5.38461142 -0.37703422 2.69201803 0 0 Z " fill="#C3C7F1" transform="translate(416,260)"/>
<path d="M0 0 C6.6 0 13.2 0 20 0 C19.67 0.99 19.34 1.98 19 3 C16.77057252 2.85820962 14.54146372 2.71140302 12.3125 2.5625 C11.07113281 2.48128906 9.82976562 2.40007812 8.55078125 2.31640625 C5.61819663 2.05508683 2.86558383 1.65201621 0 1 C0 0.67 0 0.34 0 0 Z " fill="#E0E3FD" transform="translate(240,417)"/>
<path d="M0 0 C0.33 2.31 0.66 4.62 1 7 C-2.96 7 -6.92 7 -11 7 C-2.55172414 0 -2.55172414 0 0 0 Z " fill="#D7D9F5" transform="translate(342,389)"/>
<path d="M0 0 C4.69159716 3.38772897 9.0299782 6.78185183 13 11 C11.35 10.67 9.7 10.34 8 10 C8 9.34 8 8.68 8 8 C6.68 8 5.36 8 4 8 C3.34 7.01 2.68 6.02 2 5 C1.34 5 0.68 5 0 5 C0 3.35 0 1.7 0 0 Z " fill="#D7D8F8" transform="translate(136,372)"/>
<path d="M0 0 C0.99 0.33 1.98 0.66 3 1 C-1.19440054 4.57757693 -5.30488053 8 -11 8 C-11 7.34 -11 6.68 -11 6 C-9.68 6 -8.36 6 -7 6 C-6.814375 5.0409375 -6.814375 5.0409375 -6.625 4.0625 C-6.41875 3.381875 -6.2125 2.70125 -6 2 C-3.50907189 0.75453595 -2.58919267 1.2232422 0 2 C0 1.34 0 0.68 0 0 Z " fill="#25149D" transform="translate(330,393)"/>
<path d="M0 0 C2.97 0.99 5.94 1.98 9 3 C8.67 4.32 8.34 5.64 8 7 C7.01 6.67 6.02 6.34 5 6 C5 5.67 5 5.34 5 5 C3.35 5 1.7 5 0 5 C0 3.35 0 1.7 0 0 Z " fill="#DBDEF6" transform="translate(298,105)"/>
<path d="M0 0 C0.99 0 1.98 0 3 0 C1.63088196 3.1489715 0.1247864 5.0478487 -2.5 7.25 C-3.41265625 8.03117187 -3.41265625 8.03117187 -4.34375 8.828125 C-6 10 -6 10 -8 10 C-7.67 8.68 -7.34 7.36 -7 6 C-6.34 6 -5.68 6 -5 6 C-4.67 5.01 -4.34 4.02 -4 3 C-3.34 3 -2.68 3 -2 3 C-1.34 2.01 -0.68 1.02 0 0 Z " fill="#22119D" transform="translate(360,371)"/>
<path d="M0 0 C1.53760842 3.07521683 0.36599236 5.34675118 -0.4375 8.625 C-0.72496094 9.81351562 -1.01242187 11.00203125 -1.30859375 12.2265625 C-1.65083984 13.59941406 -1.65083984 13.59941406 -2 15 C-2.66 15 -3.32 15 -4 15 C-4.33 16.32 -4.66 17.64 -5 19 C-6.35069977 14.94790069 -4.98839952 12.23313056 -3.625 8.375 C-3.39039063 7.68148438 -3.15578125 6.98796875 -2.9140625 6.2734375 C-1.15438988 1.15438988 -1.15438988 1.15438988 0 0 Z " fill="#2B1C9A" transform="translate(399,286)"/>
<path d="M0 0 C0 0.66 0 1.32 0 2 C-0.99 2.33 -1.98 2.66 -3 3 C-3.495 3.495 -3.99 3.99 -4.5 4.5 C-6 6 -6 6 -9 7 C-11.6875 6.5625 -11.6875 6.5625 -14 6 C-10.292996 2.7563715 -5.02493834 0 0 0 Z " fill="#D3D4F7" transform="translate(202,105)"/>
<path d="M0 0 C0.721875 0.309375 1.44375 0.61875 2.1875 0.9375 C4.92679703 2.09057976 4.92679703 2.09057976 7.6875 2.375 C10 3 10 3 11.125 4.9375 C11.41375 5.618125 11.7025 6.29875 12 7 C12.99 7.66 13.98 8.32 15 9 C14.67 9.66 14.34 10.32 14 11 C11.85038384 9.54699102 9.70532871 8.0879574 7.5625 6.625 C6.95083984 6.2125 6.33917969 5.8 5.70898438 5.375 C1.11328125 2.2265625 1.11328125 2.2265625 0 0 Z " fill="#D5D3FA" transform="translate(155,369)"/>
<path d="M0 0 C0.33 0.99 0.66 1.98 1 3 C0.04504326 4.69287785 -0.9590934 6.35857037 -2 8 C-2.69579454 10.19130534 -2.69579454 10.19130534 -3 12 C-3.66 11.34 -4.32 10.68 -5 10 C-6.98 10.99 -6.98 10.99 -9 12 C-6 8 -3 4 0 0 Z " fill="#1F0E9B" transform="translate(374,339)"/>
<path d="M0 0 C1.65 0 3.3 0 5 0 C2.68118495 2.67901932 0.68185532 3.66204403 -2.6875 4.6875 C-3.89986328 5.06455078 -3.89986328 5.06455078 -5.13671875 5.44921875 C-6.05904297 5.72185547 -6.05904297 5.72185547 -7 6 C-6.67 4.35 -6.34 2.7 -6 1 C-3.03 1.495 -3.03 1.495 0 2 C0 1.34 0 0.68 0 0 Z " fill="#D8D8F7" transform="translate(315,385)"/>
<path d="M0 0 C0.99 0.33 1.98 0.66 3 1 C-2.445 5.455 -2.445 5.455 -8 10 C-9 8 -9 8 -8.375 6 C-6.5973346 3.41430487 -4.91421174 3.01997411 -2 2 C-1.34 1.34 -0.68 0.68 0 0 Z " fill="#D5D6F7" transform="translate(148,115)"/>
<path d="M0 0 C0.33 0.66 0.66 1.32 1 2 C-0.25571754 5.49291546 -2.32024585 7.39762555 -5.125 9.75 C-6.21167969 10.67039062 -6.21167969 10.67039062 -7.3203125 11.609375 C-7.87460937 12.06828125 -8.42890625 12.5271875 -9 13 C-9.66 12.67 -10.32 12.34 -11 12 C-10.54109375 11.55269531 -10.0821875 11.10539062 -9.609375 10.64453125 C-6.16447701 7.25029352 -2.92744915 3.86423288 0 0 Z " fill="#D5D3FB" transform="translate(379,355)"/>
<path d="M0 0 C2.31 1.98 4.62 3.96 7 6 C3.29847322 6.92538169 2.36541838 7.08174162 -1 6 C-0.67 4.02 -0.34 2.04 0 0 Z " fill="#DEE1F9" transform="translate(123,359)"/>
<path d="M0 0 C1.65 1.32 3.3 2.64 5 4 C4.01 4 3.02 4 2 4 C2.061875 5.918125 2.061875 5.918125 2.125 7.875 C2.1953125 10.0546875 2.1953125 10.0546875 2 12 C1.34 12.66 0.68 13.32 0 14 C0 9.38 0 4.76 0 0 Z " fill="#190A91" transform="translate(403,247)"/>
<path d="M0 0 C0.33 0 0.66 0 1 0 C1 6.93 1 13.86 1 21 C-0.32 19.68 -1.64 18.36 -3 17 C-2.34 16.67 -1.68 16.34 -1 16 C-0.68758545 13.28553021 -0.48663408 10.66090639 -0.375 7.9375 C-0.33632813 7.17888672 -0.29765625 6.42027344 -0.2578125 5.63867188 C-0.16326438 3.75952805 -0.08053244 1.87979664 0 0 Z " fill="#1A0F7E" transform="translate(374,140)"/>
<path d="M0 0 C1.4540625 0.0309375 1.4540625 0.0309375 2.9375 0.0625 C0.52342302 1.67188465 -1.40294437 2.71740738 -4.0625 3.75 C-5.0834375 4.15798828 -5.0834375 4.15798828 -6.125 4.57421875 C-8.0625 5.0625 -8.0625 5.0625 -11.0625 4.0625 C-11.0625 3.0725 -11.0625 2.0825 -11.0625 1.0625 C-9.928125 1.083125 -8.79375 1.10375 -7.625 1.125 C-3.70384291 1.05620777 -3.73763955 0.07627836 0 0 Z " fill="#1F0F97" transform="translate(203.0625,102.9375)"/>
<path d="M0 0 C2.64 1.65 5.28 3.3 8 5 C7.01 5.99 6.02 6.98 5 8 C4.01 7.67 3.02 7.34 2 7 C0.8125 3.4375 0.8125 3.4375 0 0 Z " fill="#1F0DA1" transform="translate(162,375)"/>
<path d="M0 0 C0.66 0 1.32 0 2 0 C1.57316761 1.58624235 1.13303842 3.1689098 0.6875 4.75 C0.44386719 5.63171875 0.20023437 6.5134375 -0.05078125 7.421875 C-1.02125331 10.05772505 -2.21005644 11.85407326 -4 14 C-4 12.35 -4 10.7 -4 9 C-3.34 9 -2.68 9 -2 9 C-2.04125 8.2575 -2.0825 7.515 -2.125 6.75 C-1.99601866 3.91241048 -1.42948778 2.41226062 0 0 Z " fill="#200F96" transform="translate(405,305)"/>
<path d="M0 0 C0.33 0.66 0.66 1.32 1 2 C0.2575 2.4125 -0.485 2.825 -1.25 3.25 C-4.05028106 4.88321237 -4.05028106 4.88321237 -6.125 7.1875 C-8 9 -8 9 -11 9 C-9.72648692 5.17946076 -8.37362475 4.76978625 -4.9375 2.8125 C-4.01839844 2.28269531 -3.09929687 1.75289063 -2.15234375 1.20703125 C-1.44207031 0.80871094 -0.73179687 0.41039063 0 0 Z " fill="#29189C" transform="translate(170,103)"/>
<path d="M0 0 C0 0.99 0 1.98 0 3 C-0.99 3 -1.98 3 -3 3 C-3 3.66 -3 4.32 -3 5 C-4.8125 5.625 -4.8125 5.625 -7 6 C-7.99 5.34 -8.98 4.68 -10 4 C-6.7 2.68 -3.4 1.36 0 0 Z " fill="#231399" transform="translate(305,392)"/>
<path d="M0 0 C0.33 0 0.66 0 1 0 C1.125 3.375 1.125 3.375 1 7 C0.34 7.66 -0.32 8.32 -1 9 C-1.70710678 10.64991582 -2.37943989 12.31562256 -3 14 C-4.61031868 10.77936264 -3.06849117 8.31794628 -2 5 C-1.35800351 3.32367583 -0.70105843 1.65249487 0 0 Z " fill="#D4D7F3" transform="translate(415,280)"/>
<path d="M0 0 C0.33 0 0.66 0 1 0 C0.67 4.29 0.34 8.58 0 13 C-0.99 12.67 -1.98 12.34 -3 12 C-3 11.34 -3 10.68 -3 10 C-2.34 10 -1.68 10 -1 10 C-1.01160156 9.36191406 -1.02320313 8.72382813 -1.03515625 8.06640625 C-1.04417969 7.24011719 -1.05320312 6.41382813 -1.0625 5.5625 C-1.07410156 4.73878906 -1.08570313 3.91507812 -1.09765625 3.06640625 C-1 1 -1 1 0 0 Z " fill="#26179A" transform="translate(414,270)"/>
<path d="M0 0 C-5.94 3.465 -5.94 3.465 -12 7 C-12 4 -12 4 -10.875 2.4375 C-7.34023645 -0.27248539 -4.25504064 -1.41834688 0 0 Z " fill="#D2D0F9" transform="translate(174,102)"/>
<path d="M0 0 C3.04049801 3.64859761 4.96518762 7.7444533 7 12 C6.01 11.67 5.02 11.34 4 11 C4 10.01 4 9.02 4 8 C3.01 7.67 2.02 7.34 1 7 C0.67 4.69 0.34 2.38 0 0 Z " fill="#24139A" transform="translate(111,315)"/>
<path d="M0 0 C0.99 0.66 1.98 1.32 3 2 C2.34 2 1.68 2 1 2 C1 4.64 1 7.28 1 10 C0.01 10 -0.98 10 -2 10 C-1.34 6.7 -0.68 3.4 0 0 Z " fill="#D3D1F6" transform="translate(104,203)"/>
<path d="M0 0 C2.97 0.33 5.94 0.66 9 1 C5.71536341 3.18975773 2.79303725 3.99806563 -1 5 C-0.67 3.35 -0.34 1.7 0 0 Z " fill="#D8D9F9" transform="translate(195,88)"/>
<path d="M0 0 C0.99 0.33 1.98 0.66 3 1 C2.34 2.65 1.68 4.3 1 6 C0.38125 5.814375 -0.2375 5.62875 -0.875 5.4375 C-3.04160178 4.76313824 -3.04160178 4.76313824 -5 6 C-3.63016497 2.83884224 -3.0109362 2.0072908 0 0 Z " fill="#949FA9" transform="translate(7,1)"/>
<path d="M0 0 C2.88575819 0.39803561 3.82189513 0.79009069 5.75 3.0625 C6.1625 3.701875 6.575 4.34125 7 5 C5.35 5.66 3.7 6.32 2 7 C2 5.68 2 4.36 2 3 C1.34 2.67 0.68 2.34 0 2 C0 1.34 0 0.68 0 0 Z " fill="#210F9C" transform="translate(356,123)"/>
<path d="M0 0 C0.66 0.33 1.32 0.66 2 1 C-1.08290155 5.22797927 -1.08290155 5.22797927 -3 7 C-5.8125 7.375 -5.8125 7.375 -8 7 C-5.42215154 4.35247996 -3.08351902 2.05567935 0 0 Z " fill="#26179A" transform="translate(154,113)"/>
<path d="M0 0 C1.95216435 3.90432869 2.50639991 6.72213252 3 11 C2.01 11 1.02 11 0 11 C0 7.37 0 3.74 0 0 Z " fill="#1C0F90" transform="translate(98,273)"/>
<path d="M0 0 C3.7952131 1.49097658 5.61042731 3.75700849 8 7 C5 7 5 7 2.3125 4.625 C0 2 0 2 0 0 Z " fill="#3425A4" transform="translate(355,138)"/>
<path d="M0 0 C1.32 0.66 2.64 1.32 4 2 C3.67 3.32 3.34 4.64 3 6 C1.02 4.68 -0.96 3.36 -3 2 C-2.01 1.34 -1.02 0.68 0 0 Z " fill="#D4D7F3" transform="translate(338,105)"/>
<path d="M0 0 C1.65 0 3.3 0 5 0 C5.66 1.32 6.32 2.64 7 4 C7.66 4 8.32 4 9 4 C8.67 4.66 8.34 5.32 8 6 C6.66402348 5.19185349 5.331275 4.37836819 4 3.5625 C3.2575 3.11003906 2.515 2.65757812 1.75 2.19140625 C1.1725 1.79824219 0.595 1.40507812 0 1 C0 0.67 0 0.34 0 0 Z " fill="#251599" transform="translate(159,389)"/>
<path d="M0 0 C0.99 0.33 1.98 0.66 3 1 C2.8125 2.875 2.8125 2.875 2 5 C-0.5625 6.25 -0.5625 6.25 -3 7 C-3 6.34 -3 5.68 -3 5 C-2.34 5 -1.68 5 -1 5 C-1.33 4.01 -1.66 3.02 -2 2 C-1.34 2 -0.68 2 0 2 C0 1.34 0 0.68 0 0 Z " fill="#DBDEFA" transform="translate(324,378)"/>
<path d="M0 0 C1.32 0.33 2.64 0.66 4 1 C4 1.99 4 2.98 4 4 C4.66 4 5.32 4 6 4 C6 4.99 6 5.98 6 7 C2.58841744 5.86280581 1.88145399 4.95657056 0 2 C0 1.34 0 0.68 0 0 Z " fill="#D6D6F8" transform="translate(125,337)"/>
<path d="M0 0 C0.33 0 0.66 0 1 0 C1.39253254 4.44870215 0.15305957 7.14243493 -2 11 C-2.66 11 -3.32 11 -4 11 C-3.52269162 9.5410574 -3.04308958 8.08286504 -2.5625 6.625 C-2.29566406 5.81289063 -2.02882813 5.00078125 -1.75390625 4.1640625 C-1 2 -1 2 0 0 Z " fill="#D3D2F8" transform="translate(402,317)"/>
<path d="M0 0 C3.3 0 6.6 0 10 0 C10 0.99 10 1.98 10 3 C6.7 2.34 3.4 1.68 0 1 C0 0.67 0 0.34 0 0 Z " fill="#C9C8F5" transform="translate(206,396)"/>
<path d="M0 0 C0.99 0.33 1.98 0.66 3 1 C2.67 2.98 2.34 4.96 2 7 C0.35 5.35 -1.3 3.7 -3 2 C-2.34 2 -1.68 2 -1 2 C-0.67 1.34 -0.34 0.68 0 0 Z " fill="#D4D5F6" transform="translate(152,362)"/>
<path d="M0 0 C2 3 2 3 1.625 5.1875 C1.41875 5.785625 1.2125 6.38375 1 7 C-0.65 5.02 -2.3 3.04 -4 1 C-2.68 0.67 -1.36 0.34 0 0 Z " fill="#1E0E99" transform="translate(131,361)"/>
<path d="M0 0 C0.928125 0.2784375 0.928125 0.2784375 1.875 0.5625 C4.04160178 1.23686176 4.04160178 1.23686176 6 0 C6.33 1.98 6.66 3.96 7 6 C6.01 6 5.02 6 4 6 C1.8125 3 1.8125 3 0 0 Z " fill="#24119F" transform="translate(121,355)"/>
<path d="M0 0 C2.31 1.98 4.62 3.96 7 6 C6.34 6.66 5.68 7.32 5 8 C1.91763635 5.21592961 1.04793663 4.19174654 0 0 Z " fill="#2D1D9F" transform="translate(133,349)"/>
<path d="M0 0 C-1.29299694 2.88437779 -2.65941363 4.87219421 -5 7 C-5.66 6.67 -6.32 6.34 -7 6 C-5.52522876 2.59668175 -4.14385429 0 0 0 Z " fill="#D2D2FA" transform="translate(369,345)"/>
<path d="M0 0 C0.66 0 1.32 0 2 0 C0.7508258 3.45925163 -0.67527795 6.14693203 -3 9 C-3.66 8.67 -4.32 8.34 -5 8 C-4.21718695 6.66144944 -3.42348123 5.32926356 -2.625 4 C-2.18414062 3.2575 -1.74328125 2.515 -1.2890625 1.75 C-0.86367188 1.1725 -0.43828125 0.595 0 0 Z " fill="#D0CFF6" transform="translate(394,333)"/>
<path d="M0 0 C2.61047801 1.305239 2.68066423 2.35826574 3.625 5.0625 C3.88539062 5.79597656 4.14578125 6.52945312 4.4140625 7.28515625 C4.60742188 7.85105469 4.80078125 8.41695313 5 9 C4.01 8.67 3.02 8.34 2 8 C2 7.34 2 6.68 2 6 C1.34 6 0.68 6 0 6 C0 4.02 0 2.04 0 0 Z " fill="#CFD3F7" transform="translate(97,318)"/>
<path d="M0 0 C3.94727588 -0.17942163 6.5980513 -0.09350689 10 2 C10 2.66 10 3.32 10 4 C6.44219804 3.39009109 3.3171411 2.4216319 0 1 C0 0.67 0 0.34 0 0 Z " fill="#231395" transform="translate(295,103)"/>
<path d="M0 0 C0.66 0.33 1.32 0.66 2 1 C2 1.66 2 2.32 2 3 C1.34 3 0.68 3 0 3 C-0.66 4.32 -1.32 5.64 -2 7 C-2 6.01 -2 5.02 -2 4 C-2.99 3.67 -3.98 3.34 -5 3 C-2.625 1.4375 -2.625 1.4375 0 0 Z " fill="#D0D3F0" transform="translate(177,115)"/>
<path d="M0 0 C0.99 0.33 1.98 0.66 3 1 C1.95125002 3.62187494 1.35068687 4.79371361 -1.125 6.25 C-1.74375 6.4975 -2.3625 6.745 -3 7 C-1.125 2.25 -1.125 2.25 0 0 Z " fill="#97A1A9" transform="translate(403,37)"/>
<path d="M0 0 C4.455 0.99 4.455 0.99 9 2 C9 2.33 9 2.66 9 3 C5.7 3.33 2.4 3.66 -1 4 C-0.34 3.67 0.32 3.34 1 3 C0.67 2.01 0.34 1.02 0 0 Z " fill="#DBDFE6" transform="translate(317,9)"/>
<path d="M0 0 C2.475 0.99 2.475 0.99 5 2 C2 4 2 4 -2 4 C-1.34 2.68 -0.68 1.36 0 0 Z " fill="#96A2AB" transform="translate(453,2)"/>
<path d="M0 0 C0.99 0.33 1.98 0.66 3 1 C0.69 2.65 -1.62 4.3 -4 6 C-4 5.01 -4 4.02 -4 3 C-3.34 3 -2.68 3 -2 3 C-2 2.34 -2 1.68 -2 1 C-1.34 0.67 -0.68 0.34 0 0 Z " fill="#241598" transform="translate(345,384)"/>
<path d="M0 0 C2.5 2.3125 2.5 2.3125 5 5 C5 5.99 5 6.98 5 8 C4.34 8 3.68 8 3 8 C0 2.25 0 2.25 0 0 Z " fill="#C7C5F0" transform="translate(118,352)"/>
<path d="M0 0 C0.99 0.33 1.98 0.66 3 1 C4.1875 3.5625 4.1875 3.5625 5 6 C4.34 6.66 3.68 7.32 3 8 C0 2.25 0 2.25 0 0 Z " fill="#291C9E" transform="translate(99,320)"/>
<path d="M0 0 C0.33 0 0.66 0 1 0 C1.33 3.3 1.66 6.6 2 10 C1.01 10.66 0.02 11.32 -1 12 C-0.67 8.04 -0.34 4.08 0 0 Z " fill="#383199" transform="translate(137,136)"/>
<path d="M0 0 C2.64 1.65 5.28 3.3 8 5 C6.68 5.33 5.36 5.66 4 6 C1.75 4.1875 1.75 4.1875 0 2 C0 1.34 0 0.68 0 0 Z " fill="#D0CEF8" transform="translate(332,121)"/>
<path d="M0 0 C2.64 0.99 5.28 1.98 8 3 C8 3.33 8 3.66 8 4 C2.25 4.125 2.25 4.125 0 3 C0 2.01 0 1.02 0 0 Z " fill="#27179E" transform="translate(316,97)"/>
<path d="M0 0 C2.97 0.99 5.94 1.98 9 3 C8.34 3.66 7.68 4.32 7 5 C4.375 4.625 4.375 4.625 2 4 C2 3.34 2 2.68 2 2 C1.34 2 0.68 2 0 2 C0 1.34 0 0.68 0 0 Z " fill="#24159C" transform="translate(301,91)"/>
</svg>
